<?xml version="1.0" standalone="no"?>
<!DOCTYPE svg PUBLIC "-//W3C//DTD SVG 20010904//EN"
 "http://www.w3.org/TR/2001/REC-SVG-20010904/DTD/svg10.dtd">
<svg version="1.0" xmlns="http://www.w3.org/2000/svg"
 width="1080.000000pt" height="1080.000000pt" viewBox="0 0 1080.000000 1080.000000"
 preserveAspectRatio="xMidYMid meet">
<metadata>
Created by potrace 1.16, written by Peter Selinger 2001-2019
</metadata>
<g transform="translate(0.000000,1080.000000) scale(0.100000,-0.100000)"
fill="#000000" stroke="none">
<path d="M1251 10718 c-51 -328 -215 -716 -396 -934 l-25 -31 47 8 c27 4 57 8
68 9 18 1 18 2 3 13 -15 10 -15 14 3 49 11 22 26 41 34 45 8 3 15 11 15 18 0
8 15 43 34 79 19 35 31 68 28 71 -4 3 -2 9 4 13 17 11 64 105 64 128 0 12 9
33 20 46 10 14 22 40 25 58 3 18 12 46 19 64 7 17 11 37 9 44 -3 6 0 12 6 12
5 0 10 8 11 18 2 51 6 70 12 66 7 -5 12 10 23 64 4 17 12 32 18 32 8 0 8 3 -1
9 -13 8 -14 91 -1 91 9 0 19 79 12 96 -11 29 -19 11 -32 -68z"/>
<path d="M2527 10773 c-4 -20 -1 -31 10 -38 9 -5 24 -17 34 -27 9 -9 19 -14
22 -12 2 3 12 -11 21 -31 10 -20 28 -41 42 -47 13 -6 24 -17 24 -25 0 -7 4
-13 9 -13 4 0 29 -18 54 -40 25 -22 50 -40 55 -40 6 0 12 -4 14 -8 5 -15 129
-102 144 -102 8 0 17 -7 20 -15 4 -8 11 -15 18 -15 6 0 35 -16 63 -35 29 -19
57 -35 63 -35 6 0 9 -4 6 -9 -3 -5 5 -12 19 -15 14 -4 25 -11 25 -17 0 -5 14
-15 30 -20 17 -6 30 -15 30 -19 0 -5 6 -15 13 -22 6 -7 23 -30 37 -50 14 -21
28 -38 33 -38 4 0 7 -11 7 -25 0 -14 5 -25 10 -25 6 0 10 -4 10 -9 0 -5 5 -22
12 -38 6 -15 12 -35 14 -43 2 -8 11 -22 22 -30 10 -8 31 -42 47 -75 17 -33 42
-73 57 -89 16 -16 28 -37 28 -46 0 -25 35 -53 58 -45 11 3 23 1 27 -5 3 -6 -3
-10 -14 -10 -24 0 -30 -37 -8 -46 7 -2 14 -21 15 -42 4 -53 22 -104 45 -122
11 -9 20 -26 21 -38 0 -12 23 -49 49 -82 41 -51 54 -60 80 -60 48 0 82 11 66
21 -11 6 -11 19 2 67 17 64 12 149 -9 144 -11 -2 -14 10 -17 76 0 13 -7 27
-15 32 -10 6 -11 12 -3 22 18 23 23 48 10 48 -7 0 -22 -8 -33 -17 -18 -17 -36
-19 -116 -15 l-28 2 20 35 c24 42 25 59 5 51 -10 -3 -15 1 -15 13 0 10 7 22
16 25 26 10 36 7 30 -9 -3 -8 -1 -15 4 -15 6 0 10 5 10 11 0 15 42 7 48 -9 2
-7 -5 -16 -16 -19 -31 -8 -34 -29 -7 -47 39 -25 114 11 115 56 0 14 44 121 56
137 2 2 14 -3 27 -12 17 -11 26 -28 30 -59 8 -56 40 -132 73 -171 39 -46 66
-105 59 -130 -4 -15 -3 -18 3 -9 7 10 11 5 16 -20 7 -31 8 -32 21 -14 34 45
31 187 -5 331 -25 99 -33 111 -120 180 -53 43 -70 62 -70 81 0 14 -5 34 -11
45 -10 19 -9 20 11 9 65 -35 243 -182 369 -307 80 -78 146 -141 148 -139 20
19 -258 290 -382 372 -22 15 -66 44 -97 66 l-57 40 -5 61 c-3 34 -10 136 -16
226 -7 111 -14 167 -22 173 -8 5 -1 8 19 8 93 0 220 44 254 88 13 16 12 16 -5
2 -10 -8 -44 -15 -80 -16 -33 -1 -92 -7 -131 -14 -38 -6 -97 -13 -130 -15 -33
-2 -76 -7 -95 -11 -65 -13 -232 -4 -295 16 -59 18 -242 94 -300 124 -25 13
-75 16 -311 16 l-282 0 -5 -27z"/>
<path d="M5037 10781 c-39 -14 -59 -16 -95 -9 -65 13 -326 0 -384 -18 -29 -10
-60 -29 -81 -53 -35 -39 -82 -144 -73 -166 2 -7 42 -18 93 -25 96 -13 116 -19
273 -78 274 -103 392 -193 573 -441 50 -69 132 -180 182 -246 136 -180 345
-542 345 -597 0 -39 12 -46 110 -57 81 -10 190 -28 276 -46 29 -6 36 21 40
167 3 138 15 169 95 243 30 28 54 53 54 58 0 4 4 8 9 10 4 1 25 18 46 37 39
35 90 65 165 95 l40 16 -25 19 c-14 11 -29 20 -33 20 -5 0 -20 9 -34 20 -14
11 -38 20 -53 20 -24 0 -26 3 -22 30 4 27 2 30 -23 30 -21 0 -26 4 -21 16 4
11 2 15 -8 11 -10 -4 -12 0 -9 14 3 10 0 25 -6 32 -14 17 -10 77 6 77 6 0 15
-5 18 -10 5 -8 12 -7 22 1 12 10 16 10 23 -1 4 -7 15 -10 25 -6 19 7 78 -30
70 -44 -3 -4 4 -6 15 -3 11 3 20 0 20 -6 0 -6 7 -11 15 -11 8 0 15 -9 15 -20
0 -11 5 -20 10 -20 6 0 10 5 10 11 0 6 19 -6 42 -25 23 -20 47 -36 54 -36 7 0
24 -14 38 -32 19 -25 22 -36 15 -51 -8 -14 -6 -22 8 -32 47 -35 75 -28 184 47
64 43 223 120 284 137 78 22 210 7 293 -31 49 -24 74 -66 86 -152 7 -46 9 -48
34 -42 141 31 137 32 246 -48 77 -58 101 -84 131 -150 23 -49 206 -232 268
-268 33 -19 59 -47 88 -90 38 -59 40 -66 33 -113 -13 -92 -10 -116 20 -142 19
-16 39 -23 69 -23 51 0 81 -19 106 -69 29 -56 34 -100 17 -156 -20 -62 -20
-76 -2 -69 16 6 90 143 82 151 -3 3 1 18 9 33 8 15 12 30 9 33 -3 2 11 43 30
90 90 217 73 326 -90 562 -153 223 -553 574 -789 693 -208 106 -331 96 -510
-40 -19 -14 -25 -16 -16 -5 7 9 10 17 6 17 -5 0 -1 8 8 18 20 22 11 37 -11 19
-11 -8 -14 -9 -9 0 8 13 -30 12 -52 -1 -13 -8 -63 -9 -96 -2 -11 2 -23 5 -27
5 -5 1 -8 8 -8 16 0 18 -12 19 -27 4 -14 -14 -78 15 -109 48 -12 13 -26 23
-31 23 -5 0 -18 9 -28 20 -10 11 -24 20 -30 20 -7 0 -15 7 -19 15 -3 8 -12 15
-21 15 -16 0 -56 35 -49 43 3 2 -9 10 -26 17 -19 8 -29 18 -26 26 3 9 -2 14
-14 14 -10 0 -25 6 -32 13 -7 7 -42 18 -77 26 -83 16 -152 51 -193 98 -18 19
-53 54 -78 77 -25 23 -67 62 -94 89 -27 26 -55 47 -62 47 -7 0 -16 5 -19 10
-4 6 -25 9 -48 6 -23 -2 -48 -5 -55 -5 -7 -1 -10 -5 -7 -11 8 -14 -18 -2 -95
42 -124 70 -105 68 -599 67 -400 -1 -451 -3 -494 -18z"/>
<path d="M9030 9298 c0 -4 9 -8 21 -8 15 0 19 -5 15 -15 -3 -8 0 -14 7 -12 7
1 11 -4 10 -10 -2 -7 4 -13 12 -13 8 0 15 -9 15 -19 0 -27 15 -34 30 -16 10
12 16 13 26 4 17 -14 18 -41 2 -58 -11 -11 -9 -13 12 -8 16 4 34 -1 50 -13 14
-11 22 -20 18 -20 -4 0 6 -13 22 -30 28 -29 80 -42 80 -20 0 19 18 10 25 -12
4 -14 8 -18 12 -10 6 15 37 16 64 2 14 -8 19 -7 19 1 0 14 52 3 62 -14 4 -7
14 -5 31 6 23 15 25 15 20 -2 -3 -11 2 -21 12 -25 13 -5 15 -2 9 16 -6 20 -5
21 10 9 9 -7 16 -20 16 -28 0 -12 3 -13 13 -4 10 8 16 8 25 -1 12 -12 12 9 -1
30 -30 47 -283 169 -332 159 -14 -2 -23 -2 -20 1 8 8 -86 42 -97 36 -5 -3 -7
0 -6 8 2 7 -7 14 -19 16 -13 2 -23 8 -23 14 0 6 -3 9 -6 5 -4 -3 -13 0 -21 8
-8 8 -25 15 -39 15 -13 0 -24 4 -24 10 0 5 -11 9 -25 8 -14 -1 -25 -6 -25 -10z"/>
<path d="M6315 8502 c3 -8 -7 -28 -21 -45 -15 -18 -35 -50 -46 -72 -10 -22
-30 -56 -44 -75 -38 -53 -200 -234 -251 -281 -24 -22 -99 -102 -166 -177 -370
-412 -500 -577 -624 -790 -43 -74 -104 -174 -135 -222 -76 -119 -91 -149 -84
-173 3 -11 1 -41 -4 -66 -5 -25 -11 -68 -13 -95 l-5 -48 57 55 c31 31 69 61
84 66 39 15 103 14 170 -4 113 -29 376 -182 562 -326 154 -119 163 -127 325
-283 69 -67 148 -142 175 -168 28 -26 56 -54 63 -63 26 -31 53 -85 48 -94 -3
-5 3 -27 15 -48 15 -28 32 -44 57 -53 21 -7 31 -15 24 -18 -10 -3 -10 -7 -1
-18 10 -12 9 -13 -5 -8 -9 3 -16 1 -16 -4 0 -22 19 -22 39 -1 18 20 21 20 27
6 9 -25 21 -21 32 12 l10 29 42 -20 c39 -20 44 -20 75 -5 19 9 46 34 61 57 19
28 34 40 50 40 13 0 37 12 54 28 16 15 113 151 215 302 169 251 185 279 185
318 0 42 -18 91 -46 123 -13 14 -4 31 66 135 45 65 106 163 137 216 44 76 61
97 76 95 16 -2 35 21 82 96 34 53 72 109 86 125 14 15 33 45 43 67 29 64 124
194 199 272 67 69 69 73 59 103 -6 17 -21 44 -32 60 -12 17 -18 35 -15 40 10
16 -235 255 -355 346 -365 279 -606 414 -915 514 -124 40 -181 53 -253 59 -76
5 -91 4 -87 -7z"/>
<path d="M8716 8224 c-16 -25 -72 -84 -125 -131 -53 -46 -133 -125 -179 -174
-90 -96 -90 -97 -5 -90 12 1 41 -8 63 -19 22 -11 45 -18 51 -15 5 4 23 -5 40
-19 17 -14 36 -26 44 -26 7 0 16 -7 19 -16 4 -9 13 -14 21 -10 9 3 15 0 15 -9
0 -8 7 -15 15 -15 8 0 14 -6 13 -12 -2 -7 8 -14 22 -16 14 -2 30 -9 35 -15 10
-13 57 -36 112 -57 19 -7 30 -17 26 -23 -4 -6 0 -8 10 -4 22 8 47 -2 47 -18 0
-8 8 -11 20 -8 15 4 20 0 20 -15 0 -28 -48 -48 -107 -45 -179 9 -219 14 -293
33 -25 6 -63 15 -85 20 -52 10 -89 23 -145 48 -24 11 -47 19 -51 16 -4 -2 -10
4 -14 15 -3 11 -12 22 -20 25 -10 3 -15 20 -15 46 0 37 -7 45 -32 41 -5 0 -8
4 -8 10 0 6 9 8 21 4 15 -5 19 -4 15 4 -4 6 -2 11 3 11 6 0 11 5 11 10 0 11
-46 3 -65 -10 -5 -4 -32 -15 -60 -26 -87 -32 -167 -97 -151 -123 15 -24 335
-108 556 -145 220 -38 372 -56 468 -56 98 0 312 30 417 58 39 11 142 38 230
61 90 24 176 53 197 66 45 30 132 141 122 157 -4 6 -3 8 3 5 12 -7 100 108
133 172 20 40 27 81 12 81 -4 0 -19 -11 -32 -23 -14 -13 -33 -23 -43 -21 -9 1
-15 -1 -12 -6 8 -12 -16 -18 -52 -12 -32 4 -47 -11 -20 -21 7 -4 3 -8 -10 -12
-17 -6 -23 -15 -23 -36 0 -22 -4 -27 -17 -23 -17 5 -17 5 0 -6 9 -6 17 -17 17
-24 0 -22 -32 -79 -62 -111 -15 -16 -28 -33 -28 -37 0 -5 -7 -8 -15 -8 -7 0
-19 -8 -24 -17 -10 -17 -11 -16 -17 4 -6 21 -27 34 -71 42 -4 0 5 13 19 29 40
43 49 66 34 87 -9 13 -19 16 -32 10 -30 -13 -38 -12 -50 9 -7 12 -8 32 -3 55
16 74 18 139 4 145 -8 3 -15 0 -17 -6 -3 -8 -11 -7 -27 2 -20 10 -25 10 -33
-4 -5 -9 -14 -16 -19 -16 -6 0 -7 5 -3 12 4 7 -6 2 -23 -10 -32 -23 -73 -29
-73 -12 0 6 -4 10 -10 10 -5 0 -10 -9 -10 -19 0 -16 -6 -18 -34 -16 -24 2 -33
0 -30 -8 3 -8 -11 -11 -47 -10 -66 2 -79 8 -79 33 0 11 -4 20 -9 20 -5 0 -14
12 -20 28 -9 26 -10 25 -9 -13 1 -22 6 -46 11 -52 6 -9 6 -13 -2 -13 -6 0 -11
5 -11 10 0 6 -11 10 -24 10 -20 0 -24 4 -21 22 6 27 -4 68 -16 68 -13 0 -11
-28 3 -32 6 -2 8 -9 4 -16 -9 -16 -36 7 -29 25 3 7 0 13 -6 13 -6 0 -11 9 -11
21 0 13 -5 19 -13 16 -16 -6 -51 19 -43 31 8 14 -32 52 -49 46 -11 -5 -13 -2
-9 10 5 12 1 16 -17 14 -13 -2 -27 -7 -31 -13 -9 -12 -30 14 -22 27 3 4 -2 8
-11 8 -9 0 -23 7 -32 15 -11 12 -30 15 -76 11 -44 -3 -66 -1 -77 9 -14 12 -19
8 -44 -31z"/>
<path d="M2560 8035 c-7 -8 -16 -13 -20 -10 -13 8 -22 -14 -16 -39 3 -12 16
-27 29 -33 13 -6 49 -32 80 -57 31 -25 59 -46 61 -46 2 0 -5 37 -15 83 -10 45
-19 85 -19 90 0 4 -4 7 -9 7 -5 0 -7 -9 -4 -20 3 -11 0 -20 -6 -20 -6 0 -11 9
-11 20 0 11 -7 20 -15 20 -8 0 -15 5 -15 10 0 15 -26 12 -40 -5z"/>
<path d="M198 7150 c-3 -18 1 -35 9 -41 14 -12 18 -34 5 -25 -5 3 -6 -8 -4
-25 2 -16 8 -32 13 -35 5 -3 9 -18 9 -33 0 -26 21 -55 45 -63 5 -2 8 -12 7
-23 -2 -12 9 -34 23 -50 14 -17 25 -40 25 -51 0 -13 15 -34 36 -50 19 -16 41
-35 49 -41 7 -7 19 -13 25 -13 6 0 24 -7 39 -15 16 -8 52 -17 82 -20 54 -6 88
-20 101 -39 5 -8 8 -7 8 2 0 6 11 12 25 12 16 0 25 -6 25 -15 0 -10 11 -15 35
-15 25 0 41 -7 58 -26 47 -56 66 -74 76 -74 5 0 11 -4 13 -9 4 -13 176 -190
219 -225 19 -16 36 -40 39 -55 3 -14 11 -26 18 -26 8 0 19 -8 26 -17 7 -10 18
-18 25 -18 6 0 16 -9 23 -20 7 -11 17 -20 22 -20 5 0 24 -11 41 -24 32 -25 64
-26 92 -4 7 6 29 10 50 10 33 0 35 2 20 13 -9 7 -17 19 -17 28 0 9 -8 18 -19
22 -10 3 -32 19 -49 34 -17 16 -72 57 -124 90 -51 34 -100 65 -108 71 -8 6
-27 18 -41 28 -40 25 -140 103 -169 129 -14 13 -33 26 -42 29 -10 3 -18 10
-18 15 0 5 -10 9 -22 9 -18 0 -20 2 -9 9 12 8 9 12 -14 23 -33 15 -66 44 -62
56 1 4 -8 8 -21 10 -13 2 -26 10 -29 18 -3 8 -9 11 -14 8 -5 -3 -9 -1 -9 3 0
13 -79 93 -92 93 -6 0 -18 7 -27 15 -97 91 -139 129 -163 143 -15 9 -28 22
-28 29 0 7 -9 17 -20 23 -11 6 -20 17 -20 25 0 8 -9 15 -19 15 -12 0 -23 11
-29 28 -5 15 -19 38 -31 51 -11 13 -21 30 -21 38 0 7 -6 13 -14 13 -8 0 -21 3
-29 6 -10 4 -16 -4 -19 -26z"/>
<path d="M3333 6685 c-86 -19 -262 -95 -379 -164 -313 -186 -663 -480 -835
-701 -207 -266 -294 -473 -325 -768 -5 -52 -8 -61 -20 -51 -8 6 -14 17 -14 23
0 16 -48 51 -83 60 -15 3 -50 28 -77 54 -61 58 -121 107 -132 107 -4 0 -7 3
-5 6 3 8 -30 39 -42 39 -6 0 -10 6 -9 13 2 6 -3 11 -10 9 -6 -1 -11 4 -10 10
2 8 -5 12 -16 10 -10 -2 -15 1 -12 6 7 12 -48 52 -74 52 -11 0 -20 4 -20 9 0
5 -9 11 -21 14 -12 3 -18 10 -14 16 3 6 3 11 -2 11 -4 0 -26 16 -47 35 -22 19
-43 35 -46 35 -4 0 -12 11 -20 24 -7 15 -18 22 -27 19 -9 -4 -16 2 -20 16 -3
12 -13 21 -24 21 -11 0 -19 5 -19 10 0 6 -7 10 -15 10 -8 0 -16 5 -16 10 -1 6
-2 15 -3 22 -1 11 -40 39 -83 57 -12 6 -26 19 -32 29 -6 11 -23 23 -38 27 -15
3 -39 15 -55 26 -15 11 -28 17 -28 14 0 -3 -13 3 -29 14 -16 12 -35 21 -42 21
-24 0 -88 35 -89 48 0 7 -5 10 -10 7 -13 -8 -187 124 -223 169 -15 20 -37 41
-48 47 -19 10 66 -110 136 -191 65 -75 161 -170 173 -170 6 0 12 -3 12 -8 0
-4 21 -18 47 -32 27 -13 72 -39 101 -57 29 -18 57 -33 62 -33 6 0 10 -3 10 -7
0 -5 14 -17 30 -28 16 -11 29 -24 27 -29 -2 -5 -23 -14 -48 -20 -31 -8 -43
-16 -41 -27 1 -9 -11 -21 -30 -30 -27 -11 -32 -19 -30 -39 8 -57 75 -95 150
-85 26 4 68 13 94 21 71 23 128 21 149 -5 9 -11 22 -21 28 -21 21 0 20 -123
-2 -173 -9 -20 -16 -39 -17 -42 0 -3 -14 -33 -30 -67 -17 -35 -30 -70 -30 -79
0 -9 -7 -22 -15 -29 -8 -7 -15 -18 -15 -25 0 -8 -11 -27 -25 -43 -14 -17 -25
-35 -25 -41 0 -6 -5 -20 -12 -30 -10 -16 -8 -27 7 -59 12 -23 25 -38 32 -35 9
4 13 -6 13 -33 0 -54 10 -85 24 -76 6 4 29 7 51 8 78 3 139 14 161 29 27 18
38 19 29 5 -6 -10 22 -7 64 6 10 3 11 1 4 -8 -5 -7 -9 -20 -8 -28 0 -19 -44
-70 -62 -70 -19 0 -113 -42 -113 -51 0 -4 -15 -11 -33 -15 -17 -4 -27 -9 -20
-11 19 -7 157 44 256 93 50 26 160 87 242 137 83 49 153 92 157 94 4 2 18 -18
32 -45 14 -27 53 -85 88 -128 35 -43 81 -100 104 -128 22 -28 101 -119 175
-201 74 -83 156 -177 184 -210 234 -283 688 -661 854 -712 77 -24 112 -47 254
-169 264 -227 457 -328 707 -369 284 -48 547 36 831 264 l74 59 30 -22 c17
-13 48 -35 69 -50 l39 -26 29 27 c16 16 73 82 126 148 53 66 122 149 153 185
31 36 64 79 73 95 9 17 27 44 41 61 l25 30 -42 69 -41 69 23 40 c20 34 22 51
21 140 -1 55 1 98 4 95 3 -4 6 -43 6 -88 0 -58 4 -81 12 -78 7 3 11 10 9 16
-1 7 2 10 6 7 9 -6 32 16 47 44 4 8 -2 5 -14 -7 -24 -25 -37 -30 -24 -10 4 6
6 22 4 35 -1 12 1 22 6 22 4 0 14 15 21 33 7 17 19 45 27 60 8 16 15 35 15 43
0 8 5 14 10 14 6 0 10 7 10 15 0 8 4 15 9 15 14 0 24 52 11 60 -9 5 -9 13 -1
27 5 11 7 23 4 27 -3 3 1 6 10 6 10 0 17 5 17 10 0 13 -23 13 -55 -2 -34 -15
-46 -1 -16 21 12 9 21 24 20 32 -2 8 13 32 34 54 20 22 35 46 32 53 -2 7 4 18
15 24 11 7 20 20 20 29 0 9 9 19 19 22 19 5 27 47 9 47 -4 0 -8 7 -8 15 0 17
16 20 25 5 7 -12 25 -4 25 11 0 5 -6 9 -14 9 -8 0 -16 5 -18 11 -3 9 -9 9 -23
1 -11 -6 -42 -20 -69 -32 -27 -12 -62 -34 -78 -48 -15 -15 -45 -44 -66 -64
-21 -21 -44 -38 -50 -38 -7 0 -12 -4 -12 -9 0 -5 -14 -22 -30 -38 -22 -20 -29
-34 -25 -50 10 -44 -3 -22 -60 95 -61 126 -143 258 -207 335 -29 33 -41 59
-45 90 -3 23 -15 65 -27 92 -13 28 -36 79 -52 115 -16 36 -32 67 -36 68 -4 2
-8 9 -8 16 0 23 -60 123 -84 142 -14 10 -23 21 -20 26 3 4 -1 8 -8 8 -20 0
-69 53 -120 130 -129 194 -218 274 -363 326 -64 22 -75 31 -75 60 0 35 -14 36
-34 3 -22 -37 -26 -34 -106 71 -75 98 -197 235 -400 448 -91 96 -169 181 -175
190 -33 56 -63 86 -113 111 -102 51 -207 62 -329 36z"/>
<path d="M2 5475 c-2 -92 11 -151 68 -325 110 -330 191 -474 379 -680 43 -47
86 -98 96 -114 10 -15 38 -37 61 -47 24 -10 48 -27 54 -38 11 -21 11 -21 48 3
80 50 210 110 321 147 l115 38 -59 -1 c-33 -1 -62 -5 -65 -9 -6 -9 -66 -22
-105 -22 -38 0 -108 14 -115 23 -3 4 -30 19 -60 34 -96 48 -110 57 -152 97
-23 21 -45 39 -49 39 -10 0 -44 61 -41 73 1 4 -4 7 -11 7 -17 0 -67 77 -122
187 -15 29 -31 55 -36 58 -5 4 -9 15 -9 26 0 24 -65 150 -74 142 -3 -4 -6 -1
-6 6 0 15 -30 81 -45 98 -30 36 -35 43 -35 52 0 12 -31 71 -47 89 -7 7 -13 20
-13 28 0 8 -4 22 -9 32 -5 9 -12 25 -15 36 -4 10 -12 16 -20 13 -19 -8 -43 22
-49 58 -2 17 -5 -6 -5 -50z"/>
<path d="M7971 1678 c-38 -68 -101 -145 -221 -274 -222 -236 -456 -424 -611
-489 -202 -86 -751 -248 -1014 -299 -148 -29 -637 -97 -830 -115 -497 -48
-890 -62 -1215 -42 -80 5 -271 17 -425 26 -154 8 -370 22 -480 30 -110 9 -301
20 -425 25 -124 6 -292 15 -374 21 -106 7 -215 7 -373 -1 -239 -12 -452 -3
-568 25 -32 8 -60 13 -62 11 -2 -1 -37 -92 -78 -202 -71 -187 -125 -352 -125
-381 0 -11 642 -13 3490 -13 l3490 0 0 30 c0 16 -9 85 -20 152 -28 174 -40
357 -41 623 0 127 -5 271 -11 320 -5 50 -12 142 -14 205 -4 115 -34 307 -57
362 l-12 28 -24 -42z"/>
</g>
</svg>
